<?xml version="1.0" encoding="UTF-8"?>
<svg id="Layer_1" data-name="Layer 1" xmlns="http://www.w3.org/2000/svg" xmlns:xlink="http://www.w3.org/1999/xlink" viewBox="0 0 538 561.83">
  <defs>
    <style>
      .cls-1 {
        fill: none;
      }

      .cls-2 {
        clip-path: url(#clippath-1);
      }

      .cls-3 {
        fill: #393d42;
      }

      .cls-4 {
        fill: #ca4d2a;
      }

      .cls-5 {
        fill: #ffc907;
      }

      .cls-6 {
        clip-path: url(#clippath);
      }
    </style>
    <clipPath id="clippath">
      <circle class="cls-1" cx="269" cy="269" r="269"/>
    </clipPath>
    <clipPath id="clippath-1">
      <rect class="cls-1" x="46.28" y="150.3" width="427.45" height="384.7"/>
    </clipPath>
  </defs>
  <path class="cls-4" d="M236.18,425.65c-48.76,0-91.73-12.39-108.74-31.08-2.11,3.38-3.17,6.83-3.17,10.29,0,24,51.25,44.27,111.91,44.27,8.81,0,17.55-.41,26.04-1.23-2.27-4.15-5.54-12.09-5.28-23.07-4.68.27-14.72.81-20.76.81Z"/>
  <path class="cls-5" d="M393.52,46.89h0c-15.14-2.56-27.09-14.5-29.66-29.64h0c-.04-.25-.25-.45-.51-.45s-.48.19-.51.45h0c-2.57,15.13-14.52,27.07-29.66,29.63h0c-.25.04-.45.26-.45.52s.19.48.45.51h0c15.14,2.56,27.09,14.5,29.66,29.64h0c.04.25.25.45.51.45s.48-.19.51-.45h0c2.57-15.14,14.52-27.08,29.66-29.63h0c.25-.04.45-.26.45-.52s-.19-.48-.45-.51Z"/>
  <path class="cls-5" d="M333.98,81.28h0c-34.9-5.91-62.45-33.44-68.38-68.33h-.01c-.08-.58-.58-1.03-1.18-1.03s-1.1.45-1.18,1.03h0c-5.93,34.89-33.48,62.42-68.38,68.32h0c-.58.1-1.03.59-1.03,1.19s.45,1.1,1.03,1.18h0c34.9,5.91,62.45,33.44,68.38,68.33h.01c.08.58.58,1.03,1.18,1.03s1.1-.45,1.18-1.03h0c5.93-34.89,33.48-62.42,68.38-68.32h0c.58-.1,1.03-.59,1.03-1.19s-.45-1.1-1.03-1.18Z"/>
  <g class="cls-6">
    <g class="cls-2">
      <g>
        <path class="cls-3" d="M118.31,249.45c-8.93-10.72-1.09-41.51,1.36-44.93,6.84-16.36,27.57-31.74,49.39-38.16,1.04-.31.96-1.8-.11-1.97-1.51-.24-2.97-.49-4.42-.79-10.26-2.13-20.63,3.62-29.93,8.24-29.51,14.66-43.66,19.87-54.29,21.05-10.63,1.18-16.34,3.64-19.43,12.99-2.6,7.86-3.01,15.94-2.57,24.03.87,16.06,9.39,37.99,4.05,53.26-4.48,12.81,6.17,17.55,33.02-10.14.05-.06,24.16-22.1,22.93-23.57Z"/>
        <path class="cls-3" d="M360.59,203.31c-1.13-.45-2.26-.87-3.41-1.26-15.26-5.26-30.39-10.87-44.48-18.86-16.34-9.26-34.18-13.82-52.48-16.83-10.95-1.81-22.06-.82-33.07-.42-6.8.24-22.29-1.17-37.93,2.59-55.72,13.42-62.32,44.49-63.16,47.88-4.04,16.21-2.45,30.14,3.28,34.95,1.47,1.23-30.7,28.72-26.3,27.9,12.33-2.27,33.15-1.92,37.09,11.47.17.56-.95,1.02-1.13.45-2.73-8.55-19.58-10.68-31.49-9.43-5.39.56-9.89,2.97-14.04,6.23-5.39,4.22-7.76,16.53-1.34,21.35,1.42,1.07,2.97,2.68,4.85,1.85,1.95-.85,1.51-3.09,1.67-4.84.15-1.6-.49-3.19-.41-5.12.03-.64.89-.85,1.22-.31,3.35,5.44,3.57,11.02,2.75,16.72-.26,1.83-1.67,2.66-3.86,1.82-2.38-.91-4.56-2.14-6.89-3.79-.48-.34-1.11.09-1,.66,2.36,12.27.08,24.24.77,36.19.01.2.12.34.25.44.28,1.04,1.01,2.09,2.38,3.19,7.83,6.32,24.87,11.83,37.47,14.13,11.56,1.41,24.79,2.16,37.96-.4,2.93-.13,24.85-5.15,36.53-8.29-4.36,3.38-15.89,8.97-35.2,13.48-10.96,2.56-22.03,3.51-33.18,2.94-3.5-.18-4.26.53-3.32,3.83.56,1.97,1.27,3.89,1.81,5.86.93,3.41,1.68,6.84,2.32,10.29,19.56,13.95,57.12,23.11,97.93,23.11,7.45,0,21.6-.87,22.88-.94-.03-.66-.1-1.32-.21-1.97-1.03-6.07.24-11.84,2.45-17.41.83-2.09.83-3.72-.15-5.72-5.23-10.63-8.23-22.19-7.97-34.03.21-9.4-.18-18.8.75-28.19.96-9.73,4.55-18.71,7.19-27.7.11-.36.49-.56.84-.43,9.09,3.22,17.25,7.57,25.29,12.46,26.24,15.96,37.32,40.84,37.6,38.14,1.82-17.71-.4-36.96-.96-45.13-.15-2.24-1.7-3.03-3.38-3.84-23.34-11.33-38.03-30.16-46.82-54.07-3.87-10.54-5.17-21.75-8.1-32.53-4.71-17.32-13.4-31.85-29.62-40.87-.7-.39-1.62-.58-1.55-1.74,1.13-.86,2.32-.36,3.45-.12,11.04,2.36,19.87,8.21,26.59,17.19,7.4,9.89,11.65,21.2,14.28,33.14,6.03,27.42,19.92,49.71,42.74,66.29,9.87,7.17,20.51,11.83,33.06,11.17,3.32-.17,4.39-1.52,3.66-4.52-3.39-14.03-.6-27.12,5.68-39.8,4.73-9.56,8.48-19.48,10.78-29.96,2.93-13.35-1.48-22.21-14.07-27.22ZM202.65,251.25c-7.64-12.91-21-12.04-17.58-8.09.36,1-.06,2.9-.5,4.39-.75,2.55-3.49,5.68-6.26,7.17,2.48.99,4.58.97,7.29.05.69-.23,1.43.13,1.66.82.23.69-.13,1.43-.82,1.66-1.7.57-3.21.83-4.61.83-2.77,0-5.12-1-7.68-2.54-.12-.07-.15-.22-.24-.32-.05-.02-.1-.02-.15-.04-3.99-2.27-4.79-5.29-3.26-10.42.37-1.23,1-2.3,1.81-3.2,2.56-4.26,9.58-7.23,14.34-6.33,16.94,3.19,17.59,18.71,16,16.02Z"/>
        <path class="cls-3" d="M277.9,471.54c-10.37,5.61-18.8,13.74-27.95,21.41-.11-.89-.27-1.28-.16-1.58.25-.67.64-1.3.98-1.93,4.89-9.04,12.32-15.5,21.05-20.59,4.29-2.5,4.35-2.39,1.83-6.72-.18-.31-.39-.61-.58-.93-2.84-4.7-3.88-5.12-9.11-3.16-6.35,2.39-12.87,4.36-18.97,7.38-.98.49-2.34,1.09-2.99.07-.75-1.18.7-1.87,1.49-2.52,6.02-5,13.02-8.23,20.35-10.68-9.01.91-18.29,1.39-27.66,1.39-39.08,0-73.08-7.68-94.09-19.71.58,7.41,1.71,15.04.13,22.2-3.47,15.66-7.28,31.22-8.9,47.22-1.47,14.53-1.94,29.16,1.19,43.44.49,2.24,1.06,4.44,1.65,6.63l.54,7.29,133.95-.45-1.61-6.84c-1.29-8.6-2.05-17.29-2.21-26.1-.17-9.76.41-19.33,3.67-28.56,2.37-6.71,5.17-13.27,7.73-19.91.89-2.3,1.9-4.62.53-7.1-.17-.3-.57-.4-.88-.24Z"/>
      </g>
      <g>
        <path class="cls-3" d="M299.57,423.21c20.77,9.49,31.57,4.49,31.66-.23.1-5.37-1.39-10.39-4.34-14.75-4.09-6.07-9.93-9.74-17.41-9.28-5.98.37-10.34,4.39-14.57,8.26-1.6,1.47-1.54,1.78-5.42,3.4-1.43.6-.61,4.22-.22,4.66,3.42,3.9,5.81,5.89,10.29,7.94ZM316.89,407.38c1.96,0,3.56,3.12,3.56,6.98s-1.59,6.98-3.56,6.98-3.56-3.12-3.56-6.98,1.59-6.98,3.56-6.98Z"/>
        <path class="cls-3" d="M320.85,450.88c-6.1-3.74-18.56-4.38-25.01-5.07-4.99-.54-14.83.13-14.43,8.32.12,2.47.95,5,2.92,6.85.74.7,1.51.37,2.35.04,10.91-4.25,22.25-7.09,34.17-10.14Z"/>
        <path class="cls-3" d="M410.01,491.17c-9.88-13.71-3.89-17.69-.66-21.1.9-.96,1.73-1.92,2.56-2.88-12.46-4.21-23.26-5.52-30.91-7.06-.15-.03-1-1.38,1.06-1.61,6.35-.72,18.93.43,32.75,5.11,2.6-3.36,4.84-6.74,6.65-10.1-20.16-3.59-38.95-3.34-39.81-3.28-1.42.09-2.43-1.02.72-1.79,7.03-1.74,23.75-2.77,41.19.9,9.57-20.98,5.2-40.38-1.72-48.71-1.01-1.22-1.05-2.53-.58-4.09,4.17-13.82,6.63-27.94,7.15-42.37.46-12.68-1.24-25.11-5.26-37.15-1.41-4.21-1.7-4.23-5.43-1.65-8.39,5.8-16.61,11.87-23.69,19.25-6.71,7-13.16,14.26-17.95,22.83-1.27,2.28-3.11,4.42-4.8,3.55-17.58-9.08-34.64-7.96-51.33,2.32-.49.3-1.5.96-2.45,1.71-4.94-7.19-9.3-13.07-9.97-13.97-11.08-14.66-20.12-21.95-35.75-31.31-2.63-1.58-3.86-1.33-4.72,1.94-3.7,14.08-2.98,28.26-1.86,42.55.8,10.19,4.86,19.3,7.98,28.7,48.02-27.91,60.32,4.11,60.49,2.56,2.91-26.95,17.74,43.34,18.22,44.24-4.28-1.17-8.62-1.48-12.74.49-4.56,2.17-4.5,2.49-.67,5.53,3.12,2.47,6.71,4.83,5.96,9.64-.85,5.48-3.74,5.28-9.18,6.99-1.13.36-3.72.29-6.37.22-4.63-1.62-5.2-5.12-6.4-6.77-2.34-.66-4.01-.35-5.62.02-9.38,2.19-22.04,5.59-30.77,9.67-2.71,1.27,16.34,19.5,23.83,21.08.05.01.1.02.15.03,7.63,2.44,17.9,3.33,18.75,3.27q.19.43.38.87c-1.62,1.53-18.35,49.71-13.44,71.01l165.79-2.22,5.16-6.71s-36.22-5.57-76.7-61.72Z"/>
      </g>
    </g>
  </g>
</svg>