<?xml version="1.0" encoding="UTF-8"?>
<svg id="Layer_1" data-name="Layer 1" xmlns="http://www.w3.org/2000/svg" xmlns:xlink="http://www.w3.org/1999/xlink" viewBox="0 0 555.39 744.05">
  <defs>
    <style>
      .cls-1 {
        fill: none;
      }

      .cls-2 {
        fill: #257ab4;
      }

      .cls-3 {
        fill: #393d42;
      }

      .cls-4 {
        fill: #ca4d2a;
      }

      .cls-5 {
        fill: #ffc907;
      }

      .cls-6 {
        clip-path: url(#clippath);
      }
    </style>
    <clipPath id="clippath">
      <rect class="cls-1" x="31.63" y="266.38" width="496.15" height="446.53"/>
    </clipPath>
  </defs>
  <path class="cls-1" d="M113.88,73.37H36.22C16.22,73.37,0,89.59,0,109.59v576.36c0,20,16.22,36.22,36.22,36.22h482.96c20,0,36.22-16.22,36.22-36.22V230.92c0-3.54-.71-6.99-1.94-10.23-.03-.17-.06-.36-.11-.49-.03-.08-.08-.17-.11-.24-.01-.03-.03-.06-.04-.1-.57-1.34-1.36-2.87-2.37-4.46-.2-.31-.41-.6-.62-.9-.77-1.11-1.61-2.22-2.64-3.29l-.25-.25c-.11-.11-.18-.25-.3-.36l-34.62-34.91-94.1-95.05c-.74-.76-1.49-1.42-2.24-2.08l-.39-.39c-.09-.09-.2-.15-.29-.24-.04-.03-.08-.07-.12-.1-1.57-1.48-3.39-2.61-5.37-3.35-.17-.07-.32-.09-.49-.15-1.67-.57-3.41-.93-5.2-.93H113.88ZM445.51,218.01c-17.84-.02-31.58-11.08-31.95-25.45l.05-102.69,92.59,93.35,34.21,34.55c.07.08.13.17.2.24h-95.1Z"/>
  <g>
    <path class="cls-1" d="M442.48,112.77l-31.24,31.24c-1.54,1.54-.28-2.23-1.82-3.77l-3.96-3.96c-1.54-1.54-1.54-4.05,0-5.59l27.47-27.47c1.54-1.54,4.05-1.54,5.59,0l3.96,3.96c1.54,1.54,1.54,4.05,0,5.59Z"/>
    <path class="cls-1" d="M462.74,134.52l-51.99,51.99c-1.95,1.95-.54-2.65-2.48-4.59l-2.47-2.47c-1.95-1.95-1.95-5.13,0-7.08l47.4-47.4c1.95-1.95,5.13-1.95,7.08,0l2.47,2.47c1.95,1.95,1.95,5.13,0,7.08Z"/>
    <rect class="cls-1" x="401.66" y="173.95" width="94.73" height="13.5" rx="5.53" ry="5.53" transform="translate(3.74 370.43) rotate(-45)"/>
    <rect class="cls-1" x="434.7" y="189.98" width="80.63" height="13.5" rx="5.38" ry="5.38" transform="translate(.02 393.51) rotate(-45)"/>
    <path class="cls-1" d="M526.44,196.87l-25.86,25.86c-1.57,1.57-7.56,4.98-9.14,3.41l-3.82-3.82c-1.57-1.57-4.78-.94-3.21-2.52l32.48-32.48c1.57-1.57,4.15-1.57,5.73,0l3.82,3.82c1.57,1.57,1.57,4.15,0,5.73Z"/>
  </g>
  <polygon class="cls-2" points="410.17 80.93 410.17 196.15 416.06 209.88 428.31 219.2 445.54 224.27 548.44 224.27 542.56 212.33 410.17 80.93"/>
  <g>
    <path class="cls-2" d="M190.89,73.37c2.25,3.35,4.65,6.6,7.21,9.71h73.56c-4.61-4.24-10.02-7.6-16.06-9.71h-64.71Z"/>
    <path class="cls-2" d="M553.45,220.68c-.03-.17-.06-.36-.11-.49-.03-.08-.08-.17-.11-.24-.01-.03-.03-.06-.04-.1-.57-1.34-1.36-2.87-2.37-4.46-.2-.31-.41-.6-.62-.9-.77-1.11-1.61-2.22-2.64-3.29l-.25-.25c-.11-.11-.18-.25-.3-.36l-34.62-34.91-94.1-95.05c-.74-.76-1.49-1.42-2.24-2.08l-.39-.39c-.09-.09-.2-.15-.29-.24-.04-.03-.08-.07-.12-.1-1.57-1.48-3.39-2.61-5.37-3.35-.17-.07-.32-.09-.49-.15-1.67-.57-3.41-.93-5.2-.93h-52.19c-6.04,2.12-11.45,5.48-16.06,9.71h67.96l-.06,109.47c.52,20,18.47,35.14,41.65,35.17h99.88c.18,1.05.31,2.11.31,3.19v455.04c0,14.61-11.89,26.5-26.5,26.5H36.22c-14.61,0-26.5-11.89-26.5-26.5V109.59c0-14.61,11.89-26.5,26.5-26.5h70.45c2.56-3.11,4.96-6.36,7.21-9.71H36.22C16.22,73.37,0,89.59,0,109.59v576.36c0,20,16.22,36.22,36.22,36.22h482.96c20,0,36.22-16.22,36.22-36.22V230.92c0-3.54-.71-6.99-1.94-10.23ZM445.51,218.01c-17.84-.02-31.58-11.08-31.95-25.45l.05-102.69,92.59,93.35,34.21,34.55c.07.08.13.17.2.24h-95.1Z"/>
  </g>
  <path class="cls-4" d="M252.05,585.99c-56.59,0-106.47-14.38-126.22-36.07-2.44,3.92-3.68,7.93-3.68,11.95,0,27.85,59.49,51.38,129.9,51.38,10.22,0,20.37-.48,30.23-1.42-2.64-4.82-6.43-14.03-6.13-26.78-5.43.32-17.08.94-24.1.94Z"/>
  <g class="cls-6">
    <g>
      <path class="cls-3" d="M115.23,381.47c-10.37-12.44-1.26-48.18,1.57-52.15,7.94-18.99,32-36.84,57.33-44.29,1.21-.36,1.11-2.09-.13-2.29-1.75-.28-3.45-.57-5.13-.92-11.91-2.47-23.95,4.2-34.74,9.56-34.25,17.02-50.67,23.07-63.02,24.43-12.34,1.37-18.97,4.23-22.55,15.07-3.02,9.13-3.49,18.51-2.98,27.89,1.01,18.65,10.89,44.1,4.7,61.82-5.2,14.87,7.16,20.37,38.33-11.77.06-.07,28.04-25.65,26.62-27.35Z"/>
      <path class="cls-3" d="M396.45,327.92c-1.31-.52-2.63-1.01-3.95-1.47-17.72-6.1-35.27-12.61-51.63-21.89-18.96-10.75-39.68-16.04-60.91-19.54-12.72-2.1-25.6-.95-38.39-.49-7.89.28-25.87-1.36-44.02,3.01-64.68,15.57-72.33,51.64-73.31,55.57-4.69,18.82-2.85,34.98,3.8,40.57,1.7,1.43-35.63,33.33-30.53,32.39,14.31-2.64,38.47-2.23,43.06,13.32.19.65-1.1,1.18-1.31.53-3.17-9.93-22.73-12.39-36.55-10.95-6.26.66-11.48,3.45-16.3,7.23-6.26,4.9-9,19.19-1.55,24.79,1.65,1.24,3.45,3.11,5.63,2.15,2.26-.99,1.75-3.58,1.94-5.62.17-1.85-.56-3.71-.47-5.94.03-.74,1.03-.99,1.42-.36,3.88,6.32,4.14,12.79,3.2,19.41-.3,2.12-1.93,3.09-4.48,2.12-2.77-1.06-5.29-2.49-8-4.4-.56-.39-1.29.1-1.16.77,2.74,14.24.09,28.14.89,42.01.01.23.14.39.29.51.33,1.21,1.17,2.43,2.76,3.71,9.09,7.34,28.87,13.74,43.49,16.41,13.41,1.63,28.78,2.51,44.06-.46,3.4-.15,28.84-5.98,42.4-9.63-5.06,3.93-18.44,10.41-40.85,15.65-12.72,2.98-25.57,4.07-38.51,3.41-4.06-.21-4.95.62-3.85,4.44.65,2.28,1.48,4.51,2.1,6.8,1.08,3.96,1.95,7.94,2.69,11.94,22.7,16.19,66.3,26.82,113.67,26.82,8.65,0,25.07-1,26.55-1.1-.04-.77-.11-1.53-.24-2.29-1.19-7.04.28-13.74,2.85-20.21.96-2.43.96-4.32-.18-6.64-6.07-12.34-9.55-25.76-9.25-39.5.24-10.91-.21-21.82.87-32.72,1.12-11.3,5.28-21.72,8.35-32.15.12-.42.57-.64.98-.5,10.55,3.73,20.03,8.78,29.36,14.46,30.46,18.52,43.32,47.4,43.64,44.28,2.11-20.55-.46-42.9-1.11-52.38-.18-2.59-1.98-3.51-3.92-4.45-27.09-13.15-44.15-35.01-54.34-62.76-4.5-12.24-6-25.24-9.41-37.76-5.46-20.1-15.55-36.97-34.38-47.44-.82-.45-1.88-.68-1.8-2.02,1.32-1,2.69-.42,4-.14,12.81,2.74,23.06,9.53,30.86,19.95,8.58,11.48,13.52,24.61,16.57,38.46,7,31.83,23.12,57.7,49.61,76.94,11.46,8.33,23.81,13.74,38.37,12.97,3.85-.2,5.09-1.77,4.25-5.25-3.93-16.28-.69-31.48,6.59-46.2,5.49-11.09,9.84-22.61,12.51-34.78,3.4-15.49-1.72-25.78-16.33-31.6ZM213.12,383.56c-8.86-14.99-24.37-13.98-20.41-9.39.42,1.17-.07,3.37-.58,5.1-.87,2.96-4.05,6.6-7.27,8.32,2.88,1.15,5.32,1.12,8.46.05.8-.27,1.65.16,1.93.95.27.8-.16,1.65-.95,1.93-1.97.67-3.72.97-5.35.97-3.21,0-5.95-1.16-8.91-2.94-.14-.09-.17-.25-.27-.37-.05-.03-.12-.02-.17-.05-4.63-2.64-5.56-6.14-3.79-12.1.43-1.43,1.16-2.67,2.1-3.71,2.97-4.94,11.12-8.39,16.65-7.35,19.66,3.7,20.42,21.72,18.57,18.6Z"/>
      <path class="cls-3" d="M300.47,639.25c-12.04,6.51-21.82,15.94-32.44,24.85-.12-1.03-.32-1.49-.19-1.83.3-.78.74-1.5,1.14-2.24,5.67-10.49,14.3-17.99,24.43-23.9,4.98-2.9,5.05-2.78,2.12-7.8-.21-.36-.45-.71-.67-1.07-3.3-5.46-4.5-5.95-10.57-3.66-7.37,2.77-14.93,5.06-22.02,8.57-1.14.56-2.72,1.26-3.47.08-.87-1.37.82-2.17,1.73-2.93,6.99-5.81,15.11-9.56,23.62-12.4-10.46,1.05-21.23,1.61-32.1,1.61-45.36,0-84.82-8.92-109.21-22.88.68,8.61,1.99,17.45.15,25.77-4.03,18.18-8.46,36.24-10.33,54.8-1.7,16.86-2.25,33.85,1.38,50.42.57,2.6,1.23,5.16,1.92,7.7l.63,8.46,155.48-.53-1.86-7.94c-1.5-9.98-2.38-20.06-2.56-30.3-.2-11.33.47-22.44,4.26-33.15,2.75-7.79,6-15.4,8.98-23.1,1.03-2.67,2.21-5.37.62-8.25-.19-.35-.66-.47-1.02-.27Z"/>
    </g>
    <g>
      <path class="cls-3" d="M325.63,583.15c24.11,11.01,36.64,5.21,36.74-.27.11-6.23-1.62-12.05-5.03-17.12-4.74-7.04-11.52-11.31-20.21-10.77-6.94.43-12.01,5.09-16.91,9.59-1.86,1.71-1.79,2.07-6.29,3.95-1.66.69-.71,4.89-.26,5.41,3.97,4.53,6.74,6.84,11.95,9.21ZM345.73,564.79c2.28,0,4.13,3.63,4.13,8.1s-1.85,8.1-4.13,8.1-4.13-3.63-4.13-8.1,1.85-8.1,4.13-8.1Z"/>
      <path class="cls-3" d="M350.33,615.28c-7.08-4.34-21.54-5.08-29.03-5.88-5.79-.62-17.21.15-16.75,9.65.14,2.86,1.1,5.8,3.39,7.95.86.81,1.76.43,2.73.05,12.67-4.94,25.83-8.23,39.66-11.77Z"/>
      <path class="cls-3" d="M453.81,662.04c-11.47-15.91-4.51-20.53-.77-24.49,1.05-1.11,2-2.22,2.97-3.34-14.47-4.89-27-6.41-35.87-8.19-.17-.03-1.17-1.6,1.23-1.87,7.37-.84,21.97.49,38.02,5.93,3.02-3.9,5.61-7.82,7.72-11.72-23.4-4.17-45.21-3.87-46.21-3.81-1.65.1-2.82-1.18.83-2.08,8.16-2.02,27.57-3.21,47.81,1.05,11.11-24.35,6.03-46.87-2-56.54-1.18-1.42-1.22-2.94-.68-4.74,4.84-16.04,7.69-32.43,8.3-49.17.53-14.72-1.44-29.14-6.11-43.12-1.63-4.88-1.98-4.91-6.3-1.92-9.74,6.74-19.28,13.77-27.5,22.34-7.79,8.13-15.27,16.56-20.83,26.5-1.48,2.64-3.61,5.13-5.57,4.12-20.4-10.54-40.2-9.24-59.58,2.69-.57.35-1.74,1.12-2.85,1.98-5.73-8.34-10.79-15.18-11.57-16.21-12.86-17.02-23.35-25.48-41.49-36.34-3.06-1.83-4.48-1.55-5.48,2.25-4.3,16.34-3.46,32.8-2.16,49.38.92,11.83,5.64,22.41,9.26,33.32,55.73-32.4,70.01,4.77,70.21,2.97,3.38-31.28,20.6,50.31,21.15,51.35-4.96-1.36-10.01-1.71-14.79.57-5.29,2.52-5.22,2.9-.77,6.42,3.62,2.87,7.79,5.6,6.92,11.19-.99,6.36-4.34,6.13-10.65,8.11-1.32.41-4.32.34-7.39.26-5.37-1.88-6.03-5.94-7.43-7.86-2.72-.77-4.66-.41-6.52.02-10.89,2.54-25.58,6.49-35.72,11.22-3.15,1.47,18.96,22.64,27.66,24.47.06.01.12.02.17.03,8.86,2.83,20.78,3.87,21.76,3.8q.22.5.45,1c-1.88,1.78-21.3,57.7-15.6,82.42l192.43-2.58,5.99-7.79s-42.05-6.47-89.02-71.64Z"/>
    </g>
  </g>
  <path class="cls-5" d="M356.77,52.81h0c-26.57-4.5-47.55-25.46-52.06-52.02h-.01c-.06-.44-.44-.78-.9-.78s-.84.34-.9.78h0c-4.52,26.56-25.49,47.52-52.06,52.01h0c-.44.07-.78.45-.78.91s.34.84.78.9h0c26.57,4.5,47.55,25.46,52.06,52.02h.01c.06.44.44.78.9.78s.84-.34.9-.78h0c4.52-26.57,25.49-47.52,52.06-52.02h0c.44-.07.78-.45.78-.91s-.34-.84-.78-.9Z"/>
  <path class="cls-5" d="M271.12,144.09v-.02c-59.57-10.07-106.58-57.05-116.7-116.59h-.03c-.14-.99-.98-1.75-2.01-1.75s-1.87.76-2.01,1.75h-.01c-10.12,59.55-57.13,106.52-116.7,116.59v.02c-.99.14-1.75.98-1.75,2.01s.76,1.87,1.75,2.01v.02c59.57,10.07,106.58,57.05,116.7,116.59h.03c.14.99.98,1.75,2.01,1.75s1.87-.76,2.01-1.75h.01c10.12-59.55,57.13-106.52,116.7-116.59v-.02c.99-.14,1.75-.98,1.75-2.01s-.76-1.87-1.75-2.01Z"/>
</svg>