<?xml version="1.0" encoding="UTF-8"?>
<svg xmlns="http://www.w3.org/2000/svg" xmlns:xlink="http://www.w3.org/1999/xlink" viewBox="0 0 674.25 130.22">
  <defs>
    <style>
      .cls-1 {
        fill: none;
      }

      .cls-2 {
        fill: #257ab4;
      }

      .cls-3 {
        fill: #393d42;
      }

      .cls-4 {
        fill: #ca4d2a;
      }

      .cls-5 {
        fill: #ffc907;
      }

      .cls-6 {
        clip-path: url(#clippath);
      }
    </style>
    <clipPath id="clippath">
      <rect class="cls-1" x="5.54" y="46.62" width="86.83" height="78.15"/>
    </clipPath>
  </defs>
  <g id="Text">
    <g>
      <path class="cls-3" d="M112.12,112.66c0-4.89,3.27-7.05,6.64-7.05s6.67,2.16,6.67,7.05-3.3,7.09-6.64,7.09-6.67-2.16-6.67-7.09ZM124.15,112.66c0-3.58-2.16-5.84-5.39-5.84s-5.36,2.23-5.36,5.84,2.11,5.88,5.39,5.88,5.36-2.25,5.36-5.88Z"/>
      <path class="cls-3" d="M128.71,105.88h1.28v2.61c.62-1.73,2.04-3.13,5.05-2.61l-.19,1.26c-3.51-.64-4.86,1.54-4.86,5.08v7.24h-1.28v-13.57Z"/>
      <path class="cls-3" d="M136.28,120.9l1.19-.43c.9,1.66,2.78,2.7,5.03,2.7,3.42,0,5.39-1.61,5.39-5.91v-1.35c-.88,2.59-3.04,3.73-5.46,3.73-3.37,0-6.55-2.18-6.55-7.02s3.18-7,6.5-7c2.44,0,4.63,1.14,5.5,3.73v-3.46h1.28v11.29c0,5.05-2.47,7.19-6.69,7.19-2.8,0-5.15-1.33-6.19-3.46ZM147.9,112.62c0-3.58-2.14-5.84-5.39-5.84s-5.36,2.25-5.36,5.84,2.11,5.86,5.39,5.86,5.36-2.25,5.36-5.86Z"/>
      <path class="cls-3" d="M152.65,112.66c0-4.84,3.18-7.05,6.5-7.05,2.44,0,4.6,1.19,5.5,3.75v-3.49h1.28v13.55h-1.28v-3.39c-.88,2.52-3.04,3.73-5.46,3.73-3.37,0-6.55-2.21-6.55-7.09ZM164.68,112.66c0-3.58-2.16-5.84-5.39-5.84s-5.36,2.23-5.36,5.84,2.11,5.88,5.41,5.88,5.34-2.25,5.34-5.88Z"/>
      <path class="cls-3" d="M169.9,105.88h1.28v3.2c.62-1.99,2.18-3.42,4.79-3.42,3.89,0,5.79,2.28,5.79,6.57v7.21h-1.28v-7.17c0-3.63-1.45-5.41-4.67-5.41s-4.63,2.18-4.63,5.88v6.69h-1.28v-13.57Z"/>
      <path class="cls-3" d="M185.04,102.86c0-.5.38-.85.85-.85s.88.36.88.85-.4.85-.88.85-.85-.38-.85-.85ZM185.25,105.88h1.26v13.57h-1.26v-13.57Z"/>
      <path class="cls-3" d="M189.95,118.22l9.42-11.15h-9.25v-1.19h10.8v1.26l-9.4,11.13h9.23v1.19h-10.8v-1.23Z"/>
      <path class="cls-3" d="M203.17,112.66c0-4.18,2.73-7.05,6.69-7.05s6.69,2.85,6.45,7.14h-11.86c.02,3.56,2.16,5.74,5.55,5.74,2.35,0,3.87-.93,4.84-2.63l1.19.38c-1.19,2.23-3.13,3.46-6.03,3.46-4.13,0-6.83-2.8-6.83-7.05ZM215.03,111.6c-.14-2.92-2.11-4.79-5.17-4.79s-4.98,1.85-5.34,4.79h10.51Z"/>
      <path class="cls-3" d="M219.13,112.66c0-4.84,3.18-7.05,6.5-7.05,2.44,0,4.63,1.19,5.5,3.75v-7.9h1.28v17.96h-1.28v-3.39c-.88,2.52-3.04,3.73-5.46,3.73-3.37,0-6.55-2.21-6.55-7.09ZM231.16,112.66c0-3.58-2.14-5.84-5.39-5.84s-5.36,2.23-5.36,5.84,2.11,5.88,5.41,5.88,5.34-2.25,5.34-5.88Z"/>
      <path class="cls-3" d="M237.55,114.61h1.33l-3.56,7.71h-1.26l3.49-7.71Z"/>
      <path class="cls-3" d="M248.34,112.66c0-4.84,3.18-7.05,6.5-7.05,2.44,0,4.63,1.19,5.5,3.75v-7.9h1.28v17.96h-1.28v-3.39c-.88,2.52-3.04,3.73-5.46,3.73-3.37,0-6.55-2.21-6.55-7.09ZM260.37,112.66c0-3.58-2.14-5.84-5.39-5.84s-5.36,2.23-5.36,5.84,2.11,5.88,5.41,5.88,5.34-2.25,5.34-5.88Z"/>
      <path class="cls-3" d="M265.48,102.86c0-.5.38-.85.85-.85s.88.36.88.85-.4.85-.88.85-.85-.38-.85-.85ZM265.69,105.88h1.26v13.57h-1.26v-13.57Z"/>
      <path class="cls-3" d="M270.77,120.9l1.19-.43c.9,1.66,2.78,2.7,5.03,2.7,3.42,0,5.39-1.61,5.39-5.91v-1.35c-.88,2.59-3.04,3.73-5.46,3.73-3.37,0-6.55-2.18-6.55-7.02s3.18-7,6.5-7c2.44,0,4.63,1.14,5.5,3.73v-3.46h1.28v11.29c0,5.05-2.47,7.19-6.69,7.19-2.8,0-5.15-1.33-6.19-3.46ZM282.39,112.62c0-3.58-2.14-5.84-5.39-5.84s-5.36,2.25-5.36,5.84,2.11,5.86,5.39,5.86,5.36-2.25,5.36-5.86Z"/>
      <path class="cls-3" d="M287.5,102.86c0-.5.38-.85.85-.85s.88.36.88.85-.4.85-.88.85-.85-.38-.85-.85ZM287.71,105.88h1.26v13.57h-1.26v-13.57Z"/>
      <path class="cls-3" d="M293.62,113.85v-6.86h-2.06v-1.12h2.06v-2.56l1.31-.28v2.85h4.41v1.12h-4.41v6.79c0,3.56.83,4.72,3.3,4.72.26,0,.55-.02,1.09-.12l.21,1.12c-.5.1-1.04.12-1.38.12-3.23,0-4.53-1.57-4.53-5.77Z"/>
      <path class="cls-3" d="M301.92,102.86c0-.5.38-.85.85-.85s.88.36.88.85-.4.85-.88.85-.85-.38-.85-.85ZM302.14,105.88h1.26v13.57h-1.26v-13.57Z"/>
      <path class="cls-3" d="M306.83,118.22l9.42-11.15h-9.25v-1.19h10.8v1.26l-9.4,11.13h9.23v1.19h-10.8v-1.23Z"/>
      <path class="cls-3" d="M320.05,112.66c0-4.18,2.73-7.05,6.69-7.05s6.69,2.85,6.45,7.14h-11.86c.02,3.56,2.16,5.74,5.55,5.74,2.35,0,3.87-.93,4.84-2.63l1.19.38c-1.19,2.23-3.13,3.46-6.03,3.46-4.13,0-6.83-2.8-6.83-7.05ZM331.91,111.6c-.14-2.92-2.11-4.79-5.17-4.79s-4.98,1.85-5.34,4.79h10.51Z"/>
      <path class="cls-3" d="M336.02,112.66c0-4.84,3.18-7.05,6.5-7.05,2.44,0,4.63,1.19,5.5,3.75v-7.9h1.28v17.96h-1.28v-3.39c-.88,2.52-3.04,3.73-5.46,3.73-3.37,0-6.55-2.21-6.55-7.09ZM348.05,112.66c0-3.58-2.14-5.84-5.39-5.84s-5.36,2.23-5.36,5.84,2.11,5.88,5.41,5.88,5.34-2.25,5.34-5.88Z"/>
      <path class="cls-3" d="M354.43,114.61h1.33l-3.56,7.71h-1.26l3.49-7.71Z"/>
      <path class="cls-3" d="M363.88,116.34l1.16-.38c.69,1.47,2.82,2.52,5.03,2.52,2.63,0,4.53-1.16,4.56-2.87.09-3.82-8.87-1.31-8.57-6.41.14-2.04,2.42-3.56,5.39-3.56,2.37,0,4.77,1.26,5.55,2.82l-1.14.45c-.67-1.14-2.54-2.09-4.41-2.09-2.37,0-4.08,1.04-4.13,2.54-.1,3.84,8.87,1.21,8.57,6.41-.09,2.23-2.61,3.92-5.84,3.92-2.78,0-5.43-1.45-6.17-3.35Z"/>
      <path class="cls-3" d="M380.87,105.88h1.3l-2.89,13.57h-1.31l2.9-13.57ZM381.22,103.01c.12-.47.47-.78.95-.78.55,0,.85.4.74.95-.07.45-.45.76-.92.76-.57,0-.88-.4-.76-.93Z"/>
      <path class="cls-3" d="M386.14,105.88h1.28l-.71,3.32c.92-2.11,2.78-3.54,5.03-3.54,2.7,0,3.72,1.4,3.8,3.84,1.16-2.54,2.82-3.89,5.53-3.89,3.75,0,4.65,2.59,3.63,7.38l-1.38,6.45h-1.28l1.4-6.55c.88-4.08.31-6.07-2.66-6.07s-4.7,2.04-5.58,6.24l-1.38,6.38h-1.28l1.38-6.5c.88-4.08.55-6.07-2.42-6.07s-4.77,2.25-5.67,6.45l-1.31,6.12h-1.28l2.9-13.57Z"/>
      <path class="cls-3" d="M409.6,105.88h1.28l-.74,3.39c1.45-2.56,3.65-3.73,6.1-3.73,3.32,0,6.15,2.23,5.2,7.19-.95,4.86-4.56,6.95-7.83,6.95-2.49,0-4.48-1.28-4.84-3.82l-1.71,7.97h-1.28l3.82-17.96ZM420.19,112.55c.69-3.56-.95-5.79-4.15-5.79s-5.84,2.3-6.62,5.98c-.76,3.56.95,5.74,4.15,5.74s5.93-2.33,6.62-5.93Z"/>
      <path class="cls-3" d="M427.11,101.47h1.31l-3.82,17.99h-1.31l3.82-17.99Z"/>
      <path class="cls-3" d="M431.24,105.88h1.3l-2.89,13.57h-1.31l2.9-13.57ZM431.6,103.01c.12-.47.47-.78.95-.78.55,0,.85.4.74.95-.07.45-.45.76-.92.76-.57,0-.88-.4-.76-.93Z"/>
      <path class="cls-3" d="M437.03,106.99h-1.92l.24-1.12h1.92l.14-.69c.57-2.68,2.16-3.94,4.84-3.94.67,0,1.33.09,1.97.21l-.4,1.07c-.45-.1-.97-.14-1.5-.14-2.11,0-3.23,1-3.63,2.92l-.12.57h4.13l-.24,1.12h-4.13l-2.66,12.46h-1.3l2.66-12.46Z"/>
      <path class="cls-3" d="M445.57,105.88h1.3l-2.89,13.57h-1.31l2.9-13.57ZM445.93,103.01c.12-.47.47-.78.95-.78.55,0,.85.4.74.95-.07.45-.45.76-.92.76-.57,0-.88-.4-.76-.93Z"/>
      <path class="cls-3" d="M448.94,112.57c.74-4.15,3.89-6.95,7.83-6.95s6.29,2.85,5.29,7.19h-11.86c-.62,3.49,1.07,5.69,4.44,5.69,2.4,0,4.06-.95,5.39-2.7l1.14.47c-1.59,2.23-3.73,3.44-6.57,3.44-4.18,0-6.43-2.85-5.65-7.14ZM460.97,111.62c.4-2.92-1.19-4.82-4.22-4.82s-5.43,1.9-6.26,4.82h10.49Z"/>
      <path class="cls-3" d="M464.91,112.57c.95-4.82,4.48-6.95,7.78-6.95,2.47,0,4.53,1.26,4.86,3.84l1.71-8h1.28l-3.82,17.96h-1.28l.76-3.39c-1.45,2.59-3.7,3.73-6.05,3.73-3.44,0-6.19-2.28-5.24-7.19ZM476.94,112.57c.74-3.54-1-5.74-4.22-5.74s-5.84,2.3-6.57,5.93c-.71,3.58.95,5.79,4.22,5.79s5.79-2.33,6.57-5.98Z"/>
    </g>
    <path class="cls-3" d="M112.01,78.97l11.95-1.51c1.74,4.9,6.09,7.54,12.26,7.54s9.89-2.41,9.81-6.48c-.16-10.7-31.97-3.69-31.97-24.19,0-9.57,8.55-15.98,20.81-15.98s20.81,5.05,23.03,14.77l-11.47,1.51c-1.82-4.37-5.46-6.63-11.16-6.63s-9.02,2.34-9.02,6.1c0,11.6,32.36,3.32,32.36,24.04,0,9.87-8.78,16.35-22.31,16.35-12.66,0-21.84-5.58-24.29-15.52Z"/>
    <path class="cls-3" d="M161.83,50.64h12.03v7.08c1.58-4.82,6.73-7.91,13.14-7.91,7.36,0,11.16,2.49,13.61,9.19,2.14-5.2,7.44-9.19,15.9-9.19,11.31,0,15.98,6.18,15.98,21.17v22.76h-12.03v-21.7c0-9.12-2.37-12.58-8.55-12.58s-8.86,3.62-8.86,12.21v22.08h-12.03v-21.63c0-9.34-2.22-12.58-8.31-12.58s-8.86,3.84-8.86,12.96v21.25h-12.03v-43.1Z"/>
    <path class="cls-3" d="M235.59,72.19c0-14.47,8.78-22.38,20.02-22.38,6.41,0,12.19,3.01,14.48,8.14v-7.31h12.03v43.03h-12.03v-7.01c-2.22,4.97-8.07,8.06-14.4,8.06-11.24,0-20.1-8.06-20.1-22.53ZM270.48,72.19c0-8.06-4.75-12.89-11.47-12.89s-11.39,4.75-11.39,12.89,4.75,12.96,11.47,12.96,11.39-4.82,11.39-12.96Z"/>
    <path class="cls-3" d="M286.72,50.64h12.03v6.48c1.58-3.99,6.25-7.99,15.27-7.01l-1.19,10.85c-9.02-1.58-14.08,2.41-14.08,12.43v20.35h-12.03v-43.1Z"/>
    <path class="cls-3" d="M323.92,76.56v-17.26h-6.41v-8.67h6.41v-7.76l12.11-2.41v10.17h12.34v8.67h-12.34v16.2c0,7.31,2.22,9.87,8.15,9.87.95,0,1.98-.15,3.64-.38l1.58,8.67c-1.82.45-4.91.75-7.28.75-12.34,0-18.2-4.75-18.2-17.86Z"/>
    <path class="cls-3" d="M358.43,39.19h16.54c20.02,0,27.69,5.88,27.69,20.19s-7.68,19.97-27.38,19.97h-4.35v14.39h-12.5v-54.56ZM377.18,68.87c8.86,0,12.74-2.71,12.74-9.72s-3.88-9.65-12.74-9.65h-6.25v19.37h6.25Z"/>
    <path class="cls-3" d="M403.93,72.19c0-13.26,9.49-22.38,23.18-22.38,14.95,0,23.74,9.95,22.31,25.02h-33.47c.24,7.01,4.67,11.08,11.87,11.08,5.14,0,8.55-1.81,10.21-5.35l11,1.28c-3.24,8.36-10.6,12.73-21.52,12.73-14.24,0-23.58-8.89-23.58-22.38ZM438.43,67.29c-.47-5.73-4.59-9.42-11-9.42s-10.52,3.32-11.24,9.42h22.23Z"/>
    <path class="cls-3" d="M458.28,76.56v-17.26h-6.41v-8.67h6.41v-7.76l12.11-2.41v10.17h12.34v8.67h-12.34v16.2c0,7.31,2.22,9.87,8.15,9.87.95,0,1.98-.15,3.64-.38l1.58,8.67c-1.82.45-4.91.75-7.28.75-12.34,0-18.2-4.75-18.2-17.86Z"/>
    <path class="cls-3" d="M492.27,39.19h16.38c23.18,0,32.2,9.34,32.2,27.28s-9.02,27.28-32.2,27.28h-16.38v-54.56ZM509.13,83.12c14.4,0,19.07-5.35,19.07-16.73s-4.67-16.73-19.15-16.73h-4.27v33.46h4.35Z"/>
    <path class="cls-3" d="M544.42,72.19c0-14.47,8.78-22.38,20.02-22.38,6.41,0,12.19,3.01,14.48,8.14v-7.31h12.03v43.03h-12.03v-7.01c-2.22,4.97-8.07,8.06-14.4,8.06-11.24,0-20.1-8.06-20.1-22.53ZM579.31,72.19c0-8.06-4.75-12.89-11.47-12.89s-11.39,4.75-11.39,12.89,4.75,12.96,11.47,12.96,11.39-4.82,11.39-12.96Z"/>
    <path class="cls-3" d="M602.33,76.56v-17.26h-6.41v-8.67h6.41v-7.76l12.11-2.41v10.17h12.34v8.67h-12.34v16.2c0,7.31,2.22,9.87,8.15,9.87.95,0,1.98-.15,3.64-.38l1.58,8.67c-1.82.45-4.91.75-7.28.75-12.34,0-18.2-4.75-18.2-17.86Z"/>
    <path class="cls-3" d="M627.73,72.19c0-14.47,8.78-22.38,20.02-22.38,6.41,0,12.19,3.01,14.48,8.14v-7.31h12.03v43.03h-12.03v-7.01c-2.22,4.97-8.07,8.06-14.4,8.06-11.24,0-20.1-8.06-20.1-22.53ZM662.62,72.19c0-8.06-4.75-12.89-11.47-12.89s-11.39,4.75-11.39,12.89,4.75,12.96,11.47,12.96,11.39-4.82,11.39-12.96Z"/>
  </g>
  <g id="Frame_Background" data-name="Frame Background">
    <path class="cls-1" d="M19.93,12.84H6.34c-3.5,0-6.34,2.84-6.34,6.34v100.87c0,3.5,2.84,6.34,6.34,6.34h84.52c3.5,0,6.34-2.84,6.34-6.34V40.41c0-.62-.12-1.22-.34-1.79,0-.03,0-.06-.02-.09,0-.01-.01-.03-.02-.04,0,0,0-.01,0-.02-.1-.23-.24-.5-.41-.78-.03-.05-.07-.11-.11-.16-.13-.19-.28-.39-.46-.58l-.04-.04s-.03-.04-.05-.06l-6.06-6.11-16.47-16.63c-.13-.13-.26-.25-.39-.36l-.07-.07s-.03-.03-.05-.04c0,0-.01-.01-.02-.02-.27-.26-.59-.46-.94-.59-.03-.01-.06-.02-.09-.03-.29-.1-.6-.16-.91-.16H19.93ZM77.97,38.15c-3.12,0-5.53-1.94-5.59-4.45V15.73s16.21,16.34,16.21,16.34l5.99,6.05s.02.03.03.04h-16.64Z"/>
  </g>
  <g id="Frame_with_KO" data-name="Frame with KO">
    <g>
      <path class="cls-1" d="M77.44,19.74l-5.47,5.47c-.27.27-.05-.39-.32-.66l-.69-.69c-.27-.27-.27-.71,0-.98l4.81-4.81c.27-.27.71-.27.98,0l.69.69c.27.27.27.71,0,.98Z"/>
      <path class="cls-1" d="M80.99,23.54l-9.1,9.1c-.34.34-.09-.46-.43-.8l-.43-.43c-.34-.34-.34-.9,0-1.24l8.3-8.3c.34-.34.9-.34,1.24,0l.43.43c.34.34.34.9,0,1.24Z"/>
      <rect class="cls-1" x="70.3" y="30.44" width="16.58" height="2.36" rx=".97" ry=".97" transform="translate(.65 64.83) rotate(-45)"/>
      <path class="cls-1" d="M76.29,33.25h12.96c.52,0,.94.42.94.94v.48c0,.52-.42.94-.94.94h-12.23c-.52,0-.94-.42-.94-.94v-1.21c0-.12.1-.21.21-.21Z" transform="translate(0 68.87) rotate(-45)"/>
      <path class="cls-1" d="M92.13,34.45l-4.53,4.53c-.28.28-1.32.87-1.6.6l-.67-.67c-.28-.28-.84-.17-.56-.44l5.68-5.68c.28-.28.73-.28,1,0l.67.67c.28.28.28.73,0,1Z"/>
    </g>
    <polygon class="cls-2" points="71.78 14.16 71.78 34.33 72.81 36.73 74.96 38.36 77.97 39.25 95.98 39.25 94.95 37.16 71.78 14.16"/>
    <g>
      <path class="cls-2" d="M33.41,12.84c.39.59.81,1.16,1.26,1.7h12.87c-.81-.74-1.75-1.33-2.81-1.7h-11.32Z"/>
      <path class="cls-2" d="M96.86,38.62s0-.06-.02-.09c0-.01-.01-.03-.02-.04,0,0,0-.01,0-.02-.1-.23-.24-.5-.41-.78-.03-.05-.07-.11-.11-.16-.13-.19-.28-.39-.46-.58l-.04-.04s-.03-.04-.05-.06l-6.06-6.11-16.47-16.63c-.13-.13-.26-.25-.39-.36l-.07-.07s-.03-.03-.05-.04c0,0-.01-.01-.02-.02-.27-.26-.59-.46-.94-.59-.03-.01-.06-.02-.09-.03-.29-.1-.6-.16-.91-.16h-9.13c-1.06.37-2,.96-2.81,1.7h11.89v19.16c.08,3.5,3.22,6.15,7.28,6.16h17.48c.03.18.05.37.05.56v79.64c0,2.56-2.08,4.64-4.64,4.64H6.34c-2.56,0-4.64-2.08-4.64-4.64V19.18c0-2.56,2.08-4.64,4.64-4.64h12.33c.45-.54.87-1.11,1.26-1.7H6.34c-3.5,0-6.34,2.84-6.34,6.34v100.87c0,3.5,2.84,6.34,6.34,6.34h84.52c3.5,0,6.34-2.84,6.34-6.34V40.41c0-.62-.12-1.22-.34-1.79ZM77.97,38.15c-3.12,0-5.53-1.94-5.59-4.45V15.73s16.21,16.34,16.21,16.34l5.99,6.05s.02.03.03.04h-16.64Z"/>
    </g>
  </g>
  <g id="Pets">
    <path class="cls-4" d="M44.11,102.56c-9.9,0-18.63-2.52-22.09-6.31-.43.69-.64,1.39-.64,2.09,0,4.87,10.41,8.99,22.73,8.99,1.79,0,3.56-.08,5.29-.25-.46-.84-1.13-2.46-1.07-4.69-.95.06-2.99.16-4.22.16Z"/>
    <g class="cls-6">
      <g>
        <path class="cls-3" d="M20.17,66.76c-1.81-2.18-.22-8.43.28-9.13,1.39-3.32,5.6-6.45,10.03-7.75.21-.06.19-.37-.02-.4-.31-.05-.6-.1-.9-.16-2.08-.43-4.19.73-6.08,1.67-5.99,2.98-8.87,4.04-11.03,4.28-2.16.24-3.32.74-3.95,2.64-.53,1.6-.61,3.24-.52,4.88.18,3.26,1.91,7.72.82,10.82-.91,2.6,1.25,3.56,6.71-2.06.01-.01,4.91-4.49,4.66-4.79Z"/>
        <path class="cls-3" d="M69.38,57.39c-.23-.09-.46-.18-.69-.26-3.1-1.07-6.17-2.21-9.04-3.83-3.32-1.88-6.94-2.81-10.66-3.42-2.23-.37-4.48-.17-6.72-.09-1.38.05-4.53-.24-7.7.53-11.32,2.73-12.66,9.04-12.83,9.73-.82,3.29-.5,6.12.67,7.1.3.25-6.24,5.83-5.34,5.67,2.5-.46,6.73-.39,7.54,2.33.03.11-.19.21-.23.09-.55-1.74-3.98-2.17-6.4-1.92-1.1.11-2.01.6-2.85,1.26-1.1.86-1.58,3.36-.27,4.34.29.22.6.54.99.38.4-.17.31-.63.34-.98.03-.32-.1-.65-.08-1.04,0-.13.18-.17.25-.06.68,1.11.73,2.24.56,3.4-.05.37-.34.54-.78.37-.48-.19-.93-.44-1.4-.77-.1-.07-.23.02-.2.14.48,2.49.02,4.92.16,7.35,0,.04.02.07.05.09.06.21.21.42.48.65,1.59,1.28,5.05,2.4,7.61,2.87,2.35.29,5.04.44,7.71-.08.6-.03,5.05-1.05,7.42-1.68-.88.69-3.23,1.82-7.15,2.74-2.23.52-4.48.71-6.74.6-.71-.04-.87.11-.67.78.11.4.26.79.37,1.19.19.69.34,1.39.47,2.09,3.97,2.83,11.6,4.69,19.89,4.69,1.51,0,4.39-.18,4.65-.19,0-.13-.02-.27-.04-.4-.21-1.23.05-2.41.5-3.54.17-.42.17-.76-.03-1.16-1.06-2.16-1.67-4.51-1.62-6.91.04-1.91-.04-3.82.15-5.73.2-1.98.92-3.8,1.46-5.63.02-.07.1-.11.17-.09,1.85.65,3.5,1.54,5.14,2.53,5.33,3.24,7.58,8.3,7.64,7.75.37-3.6-.08-7.51-.19-9.17-.03-.45-.35-.61-.69-.78-4.74-2.3-7.73-6.13-9.51-10.98-.79-2.14-1.05-4.42-1.65-6.61-.96-3.52-2.72-6.47-6.02-8.3-.14-.08-.33-.12-.31-.35.23-.18.47-.07.7-.02,2.24.48,4.04,1.67,5.4,3.49,1.5,2.01,2.37,4.31,2.9,6.73,1.23,5.57,4.05,10.1,8.68,13.47,2.01,1.46,4.17,2.4,6.72,2.27.67-.04.89-.31.74-.92-.69-2.85-.12-5.51,1.15-8.09.96-1.94,1.72-3.96,2.19-6.09.59-2.71-.3-4.51-2.86-5.53ZM37.3,67.13c-1.55-2.62-4.27-2.45-3.57-1.64.07.2-.01.59-.1.89-.15.52-.71,1.15-1.27,1.46.5.2.93.2,1.48,0,.14-.05.29.03.34.17.05.14-.03.29-.17.34-.34.12-.65.17-.94.17-.56,0-1.04-.2-1.56-.52-.02-.02-.03-.04-.05-.06,0,0-.02,0-.03,0-.81-.46-.97-1.07-.66-2.12.07-.25.2-.47.37-.65.52-.86,1.95-1.47,2.91-1.29,3.44.65,3.57,3.8,3.25,3.25Z"/>
        <path class="cls-3" d="M52.59,111.88c-2.11,1.14-3.82,2.79-5.68,4.35-.02-.18-.06-.26-.03-.32.05-.14.13-.26.2-.39.99-1.84,2.5-3.15,4.28-4.18.87-.51.88-.49.37-1.37-.04-.06-.08-.12-.12-.19-.58-.96-.79-1.04-1.85-.64-1.29.48-2.61.89-3.85,1.5-.2.1-.48.22-.61.01-.15-.24.14-.38.3-.51,1.22-1.02,2.64-1.67,4.13-2.17-1.83.18-3.72.28-5.62.28-7.94,0-14.84-1.56-19.11-4,.12,1.51.35,3.05.03,4.51-.7,3.18-1.48,6.34-1.81,9.59-.3,2.95-.39,5.92.24,8.82.1.46.21.9.34,1.35l.11,1.48,27.21-.09-.33-1.39c-.26-1.75-.42-3.51-.45-5.3-.03-1.98.08-3.93.75-5.8.48-1.36,1.05-2.69,1.57-4.04.18-.47.39-.94.11-1.44-.03-.06-.12-.08-.18-.05Z"/>
      </g>
      <g>
        <path class="cls-3" d="M56.99,102.06c4.22,1.93,6.41.91,6.43-.05.02-1.09-.28-2.11-.88-3-.83-1.23-2.02-1.98-3.54-1.89-1.21.08-2.1.89-2.96,1.68-.33.3-.31.36-1.1.69-.29.12-.12.86-.05.95.69.79,1.18,1.2,2.09,1.61ZM60.51,98.84c.4,0,.72.63.72,1.42s-.32,1.42-.72,1.42-.72-.63-.72-1.42.32-1.42.72-1.42Z"/>
        <path class="cls-3" d="M61.31,107.68c-1.24-.76-3.77-.89-5.08-1.03-1.01-.11-3.01.03-2.93,1.69.02.5.19,1.02.59,1.39.15.14.31.08.48,0,2.22-.86,4.52-1.44,6.94-2.06Z"/>
        <path class="cls-3" d="M79.42,115.87c-2.01-2.78-.79-3.59-.13-4.29.18-.19.35-.39.52-.58-2.53-.86-4.73-1.12-6.28-1.43-.03,0-.2-.28.22-.33,1.29-.15,3.84.09,6.65,1.04.53-.68.98-1.37,1.35-2.05-4.09-.73-7.91-.68-8.09-.67-.29.02-.49-.21.15-.36,1.43-.35,4.83-.56,8.37.18,1.94-4.26,1.06-8.2-.35-9.89-.21-.25-.21-.51-.12-.83.85-2.81,1.35-5.68,1.45-8.61.09-2.58-.25-5.1-1.07-7.55-.29-.85-.35-.86-1.1-.34-1.7,1.18-3.38,2.41-4.81,3.91-1.36,1.42-2.67,2.9-3.65,4.64-.26.46-.63.9-.98.72-3.57-1.84-7.04-1.62-10.43.47-.1.06-.3.2-.5.35-1-1.46-1.89-2.66-2.03-2.84-2.25-2.98-4.09-4.46-7.26-6.36-.53-.32-.78-.27-.96.39-.75,2.86-.6,5.74-.38,8.64.16,2.07.99,3.92,1.62,5.83,9.75-5.67,12.25.84,12.29.52.59-5.47,3.6,8.8,3.7,8.99-.87-.24-1.75-.3-2.59.1-.93.44-.91.51-.14,1.12.63.5,1.36.98,1.21,1.96-.17,1.11-.76,1.07-1.86,1.42-.23.07-.76.06-1.29.05-.94-.33-1.06-1.04-1.3-1.38-.48-.13-.82-.07-1.14,0-1.91.44-4.48,1.14-6.25,1.96-.55.26,3.32,3.96,4.84,4.28.01,0,.02,0,.03,0,1.55.5,3.64.68,3.81.66q.04.09.08.18c-.33.31-3.73,10.1-2.73,14.42l33.68-.45,1.05-1.36s-7.36-1.13-15.58-12.54Z"/>
      </g>
    </g>
  </g>
  <g id="Sparkle">
    <path class="cls-5" d="M62.44,9.24h0c-4.65-.79-8.32-4.46-9.11-9.1h0c-.01-.08-.08-.14-.16-.14s-.15.06-.16.14h0c-.79,4.65-4.46,8.32-9.11,9.1h0c-.08.01-.14.08-.14.16s.06.15.14.16h0c4.65.79,8.32,4.46,9.11,9.1h0c.01.08.08.14.16.14s.15-.06.16-.14h0c.79-4.65,4.46-8.32,9.11-9.1h0c.08-.01.14-.08.14-.16s-.06-.15-.14-.16Z"/>
    <path class="cls-5" d="M47.45,25.22h0c-10.42-1.77-18.65-9.99-20.42-20.41h0c-.02-.17-.17-.31-.35-.31s-.33.13-.35.31h0c-1.77,10.42-10,18.64-20.42,20.4h0c-.17.03-.31.18-.31.36s.13.33.31.35h0c10.42,1.77,18.65,9.99,20.42,20.41h0c.02.17.17.31.35.31s.33-.13.35-.31h0c1.77-10.42,10-18.64,20.42-20.41h0c.17-.03.31-.18.31-.36s-.13-.33-.31-.35Z"/>
  </g>
</svg>