<?xml version="1.0" encoding="UTF-8"?>
<svg xmlns="http://www.w3.org/2000/svg" xmlns:xlink="http://www.w3.org/1999/xlink" viewBox="0 0 674.25 130.22">
  <defs>
    <style>
      .cls-1 {
        fill: none;
      }

      .cls-2 {
        fill: #393d42;
      }

      .cls-3 {
        fill: #ca4d2a;
      }

      .cls-4 {
        fill: #ffc907;
      }

      .cls-5 {
        clip-path: url(#clippath);
      }
    </style>
    <clipPath id="clippath">
      <rect class="cls-1" x="5.54" y="46.62" width="86.83" height="78.15"/>
    </clipPath>
  </defs>
  <g id="Text_French" data-name="Text French">
    <g>
      <path class="cls-2" d="M112.15,113.4c0-4.83,3.4-6.96,6.89-6.96s6.92,2.13,6.92,6.96-3.42,7.01-6.89,7.01-6.92-2.13-6.92-7.01ZM124.63,113.4c0-3.54-2.24-5.77-5.59-5.77s-5.56,2.2-5.56,5.77,2.19,5.81,5.59,5.81,5.56-2.23,5.56-5.81Z"/>
      <path class="cls-2" d="M129.78,106.69h1.33v2.58c.64-1.71,2.12-3.09,5.24-2.58l-.2,1.24c-3.64-.63-5.05,1.52-5.05,5.02v7.15h-1.33v-13.41Z"/>
      <path class="cls-2" d="M138.05,121.53l1.23-.42c.94,1.64,2.88,2.67,5.22,2.67,3.54,0,5.59-1.59,5.59-5.84v-1.34c-.91,2.55-3.15,3.68-5.66,3.68-3.5,0-6.79-2.16-6.79-6.94s3.3-6.91,6.74-6.91c2.54,0,4.8,1.12,5.71,3.68v-3.42h1.33v11.16c0,4.99-2.56,7.1-6.94,7.1-2.9,0-5.34-1.31-6.42-3.42ZM150.11,113.35c0-3.54-2.22-5.77-5.59-5.77s-5.56,2.23-5.56,5.77,2.19,5.79,5.59,5.79,5.56-2.23,5.56-5.79Z"/>
      <path class="cls-2" d="M155.45,113.4c0-4.78,3.3-6.96,6.74-6.96,2.54,0,4.77,1.17,5.71,3.7v-3.45h1.33v13.38h-1.33v-3.35c-.91,2.48-3.15,3.68-5.66,3.68-3.5,0-6.79-2.18-6.79-7.01ZM167.93,113.4c0-3.54-2.24-5.77-5.59-5.77s-5.56,2.2-5.56,5.77,2.19,5.81,5.61,5.81,5.54-2.23,5.54-5.81Z"/>
      <path class="cls-2" d="M173.76,106.69h1.33v3.16c.64-1.97,2.26-3.38,4.97-3.38,4.04,0,6.01,2.25,6.01,6.49v7.12h-1.33v-7.08c0-3.59-1.5-5.34-4.85-5.34s-4.8,2.16-4.8,5.81v6.61h-1.33v-13.41Z"/>
      <path class="cls-2" d="M189.88,103.72c0-.49.39-.84.89-.84s.91.35.91.84-.42.84-.91.84-.89-.38-.89-.84ZM190.1,106.69h1.3v13.41h-1.3v-13.41Z"/>
      <path class="cls-2" d="M194.88,117.08l1.16-.47c.98,1.57,2.93,2.53,5.37,2.53,2.81,0,4.5-1.05,4.5-2.77,0-3.84-10.19-1.17-10.19-6.3,0-2.13,2.26-3.61,5.51-3.61,2.46,0,4.58,1.08,5.64,2.67l-1.11.54c-.89-1.22-2.56-2.04-4.53-2.04-2.54,0-4.18.96-4.18,2.46,0,3.89,10.21,1.15,10.21,6.28,0,2.39-2.31,3.96-5.86,3.96-2.95,0-5.44-1.29-6.52-3.26Z"/>
      <path class="cls-2" d="M210.09,113.4c0-4.12,2.83-6.96,6.94-6.96s6.94,2.81,6.69,7.05h-12.31c.02,3.52,2.24,5.67,5.76,5.67,2.44,0,4.01-.91,5.02-2.6l1.23.38c-1.23,2.2-3.25,3.42-6.25,3.42-4.28,0-7.09-2.77-7.09-6.96ZM222.39,112.34c-.15-2.88-2.19-4.73-5.37-4.73s-5.17,1.83-5.54,4.73h10.9ZM218.41,101.07h1.38l-2.19,3.89h-1.28l2.09-3.89Z"/>
      <path class="cls-2" d="M228.69,115.32h1.38l-3.69,7.62h-1.3l3.62-7.62Z"/>
      <path class="cls-2" d="M241.22,106.69h1.33v3.16c.64-1.97,2.26-3.38,4.97-3.38,4.04,0,6.01,2.25,6.01,6.49v7.12h-1.33v-7.08c0-3.59-1.5-5.34-4.85-5.34s-4.8,2.16-4.8,5.81v6.61h-1.33v-13.41Z"/>
      <path class="cls-2" d="M257.07,113.82v-7.12h1.33v7.08c0,3.59,1.5,5.34,4.85,5.34s4.77-2.16,4.77-5.81v-6.61h1.33v13.41h-1.33v-3.16c-.62,1.97-2.24,3.38-4.95,3.38-4.04,0-6.01-2.25-6.01-6.49Z"/>
      <path class="cls-2" d="M273.88,106.69h1.33v3.28c.49-2.06,2.14-3.49,4.55-3.49,2.71,0,4.01,1.27,4.68,3.8.59-2.51,2.36-3.84,5.17-3.84,3.79,0,5.09,2.44,5.09,7.22v6.45h-1.33v-6.4c0-4.08-1.08-6.07-4.16-6.07s-4.36,1.97-4.36,6.09v6.38h-1.33v-6.35c0-4.1-.86-6.07-3.94-6.07s-4.38,2.16-4.38,6.33v6.09h-1.33v-13.41Z"/>
      <path class="cls-2" d="M298.15,113.4c0-4.12,2.83-6.96,6.94-6.96s6.94,2.81,6.69,7.05h-12.31c.02,3.52,2.24,5.67,5.76,5.67,2.44,0,4.01-.91,5.02-2.6l1.23.38c-1.23,2.2-3.25,3.42-6.25,3.42-4.28,0-7.09-2.77-7.09-6.96ZM310.46,112.34c-.15-2.88-2.19-4.73-5.37-4.73s-5.17,1.83-5.54,4.73h10.9ZM306.47,101.07h1.38l-2.19,3.89h-1.28l2.09-3.89Z"/>
      <path class="cls-2" d="M315.62,106.69h1.33v2.58c.64-1.71,2.12-3.09,5.24-2.58l-.2,1.24c-3.64-.63-5.05,1.52-5.05,5.02v7.15h-1.33v-13.41Z"/>
      <path class="cls-2" d="M324.88,103.72c0-.49.39-.84.89-.84s.91.35.91.84-.42.84-.91.84-.89-.38-.89-.84ZM325.1,106.69h1.3v13.41h-1.3v-13.41Z"/>
      <path class="cls-2" d="M329.88,117.08l1.16-.47c.98,1.57,2.93,2.53,5.37,2.53,2.81,0,4.5-1.05,4.5-2.77,0-3.84-10.19-1.17-10.19-6.3,0-2.13,2.26-3.61,5.51-3.61,2.46,0,4.58,1.08,5.64,2.67l-1.11.54c-.89-1.22-2.56-2.04-4.53-2.04-2.54,0-4.18.96-4.18,2.46,0,3.89,10.21,1.15,10.21,6.28,0,2.39-2.31,3.96-5.86,3.96-2.95,0-5.44-1.29-6.52-3.26Z"/>
      <path class="cls-2" d="M345.09,113.4c0-4.12,2.83-6.96,6.94-6.96s6.94,2.81,6.69,7.05h-12.31c.02,3.52,2.24,5.67,5.76,5.67,2.44,0,4.01-.91,5.02-2.6l1.23.38c-1.23,2.2-3.25,3.42-6.25,3.42-4.28,0-7.09-2.77-7.09-6.96ZM357.39,112.34c-.15-2.88-2.19-4.73-5.37-4.73s-5.17,1.83-5.54,4.73h10.9ZM353.4,101.07h1.38l-2.19,3.89h-1.28l2.09-3.89Z"/>
      <path class="cls-2" d="M363.69,115.32h1.38l-3.69,7.62h-1.3l3.62-7.62Z"/>
      <path class="cls-2" d="M374.32,117.03l1.21-.38c.71,1.45,2.93,2.48,5.22,2.48,2.73,0,4.7-1.15,4.73-2.84.1-3.77-9.21-1.29-8.88-6.33.15-2.02,2.51-3.52,5.59-3.52,2.46,0,4.95,1.24,5.76,2.79l-1.18.45c-.69-1.12-2.63-2.06-4.58-2.06-2.46,0-4.23,1.03-4.28,2.51-.1,3.8,9.21,1.2,8.88,6.33-.1,2.2-2.71,3.87-6.05,3.87-2.88,0-5.64-1.43-6.4-3.3Z"/>
      <path class="cls-2" d="M392.37,106.69h1.35l-3,13.41h-1.35l3-13.41ZM392.73,103.86c.12-.47.49-.77.99-.77.57,0,.89.4.76.94-.07.45-.47.75-.96.75-.59,0-.91-.4-.79-.91Z"/>
      <path class="cls-2" d="M398.25,106.69h1.33l-.74,3.28c.96-2.09,2.88-3.49,5.22-3.49,2.81,0,3.86,1.38,3.94,3.8,1.21-2.51,2.93-3.84,5.73-3.84,3.89,0,4.82,2.55,3.77,7.29l-1.43,6.38h-1.33l1.45-6.47c.91-4.03.32-6-2.76-6s-4.87,2.02-5.78,6.16l-1.43,6.3h-1.33l1.43-6.42c.91-4.03.57-6-2.51-6s-4.95,2.23-5.88,6.38l-1.35,6.05h-1.33l3-13.41Z"/>
      <path class="cls-2" d="M423.01,106.69h1.33l-.76,3.35c1.5-2.53,3.79-3.68,6.33-3.68,3.45,0,6.38,2.2,5.39,7.1-.98,4.8-4.73,6.87-8.12,6.87-2.58,0-4.65-1.27-5.02-3.77l-1.77,7.88h-1.33l3.96-17.74ZM433.99,113.28c.71-3.52-.98-5.72-4.31-5.72s-6.05,2.27-6.87,5.91c-.79,3.52.98,5.67,4.31,5.67s6.15-2.3,6.87-5.86Z"/>
      <path class="cls-2" d="M441.59,102.33h1.35l-3.96,17.77h-1.35l3.96-17.77Z"/>
      <path class="cls-2" d="M446.29,106.69h1.35l-3,13.41h-1.35l3-13.41ZM446.66,103.86c.12-.47.49-.77.99-.77.57,0,.89.4.76.94-.07.45-.47.75-.96.75-.59,0-.91-.4-.79-.91Z"/>
      <path class="cls-2" d="M452.72,107.79h-1.99l.25-1.1h1.99l.15-.68c.59-2.65,2.24-3.89,5.02-3.89.69,0,1.38.09,2.04.21l-.42,1.05c-.47-.09-1.01-.14-1.55-.14-2.19,0-3.35.98-3.77,2.88l-.12.56h4.28l-.25,1.1h-4.28l-2.76,12.3h-1.35l2.76-12.3Z"/>
      <path class="cls-2" d="M461.99,106.69h1.35l-3,13.41h-1.35l3-13.41ZM462.36,103.86c.12-.47.49-.77.99-.77.57,0,.89.4.76.94-.07.45-.47.75-.96.75-.59,0-.91-.4-.79-.91Z"/>
      <path class="cls-2" d="M465.91,113.3c.76-4.1,4.04-6.87,8.12-6.87s6.52,2.81,5.49,7.1h-12.31c-.64,3.45,1.11,5.62,4.6,5.62,2.49,0,4.21-.94,5.59-2.67l1.18.47c-1.65,2.2-3.86,3.4-6.82,3.4-4.33,0-6.67-2.81-5.86-7.05ZM478.39,112.36c.42-2.88-1.23-4.76-4.38-4.76s-5.64,1.88-6.5,4.76h10.88ZM476.83,101.07h1.5l-3.05,3.89h-1.4l2.95-3.89Z"/>
    </g>
    <path class="cls-2" d="M112.01,78.97l11.95-1.51c1.74,4.9,6.09,7.54,12.26,7.54s9.89-2.41,9.81-6.48c-.16-10.7-31.97-3.69-31.97-24.19,0-9.57,8.55-15.98,20.81-15.98s20.81,5.05,23.03,14.77l-11.47,1.51c-1.82-4.37-5.46-6.63-11.16-6.63s-9.02,2.34-9.02,6.1c0,11.6,32.36,3.32,32.36,24.04,0,9.87-8.78,16.35-22.31,16.35-12.66,0-21.84-5.58-24.29-15.52Z"/>
    <path class="cls-2" d="M161.83,50.64h12.03v7.08c1.58-4.82,6.73-7.91,13.14-7.91,7.36,0,11.16,2.49,13.61,9.19,2.14-5.2,7.44-9.19,15.9-9.19,11.31,0,15.98,6.18,15.98,21.17v22.76h-12.03v-21.7c0-9.12-2.37-12.58-8.55-12.58s-8.86,3.62-8.86,12.21v22.08h-12.03v-21.63c0-9.34-2.22-12.58-8.31-12.58s-8.86,3.84-8.86,12.96v21.25h-12.03v-43.1Z"/>
    <path class="cls-2" d="M235.59,72.19c0-14.47,8.78-22.38,20.02-22.38,6.41,0,12.19,3.01,14.48,8.14v-7.31h12.03v43.03h-12.03v-7.01c-2.22,4.97-8.07,8.06-14.4,8.06-11.24,0-20.1-8.06-20.1-22.53ZM270.48,72.19c0-8.06-4.75-12.89-11.47-12.89s-11.39,4.75-11.39,12.89,4.75,12.96,11.47,12.96,11.39-4.82,11.39-12.96Z"/>
    <path class="cls-2" d="M286.72,50.64h12.03v6.48c1.58-3.99,6.25-7.99,15.27-7.01l-1.19,10.85c-9.02-1.58-14.08,2.41-14.08,12.43v20.35h-12.03v-43.1Z"/>
    <path class="cls-2" d="M323.92,76.56v-17.26h-6.41v-8.67h6.41v-7.76l12.11-2.41v10.17h12.34v8.67h-12.34v16.2c0,7.31,2.22,9.87,8.15,9.87.95,0,1.98-.15,3.64-.38l1.58,8.67c-1.82.45-4.91.75-7.28.75-12.34,0-18.2-4.75-18.2-17.86Z"/>
    <path class="cls-2" d="M358.43,39.19h16.54c20.02,0,27.69,5.88,27.69,20.19s-7.68,19.97-27.38,19.97h-4.35v14.39h-12.5v-54.56ZM377.18,68.87c8.86,0,12.74-2.71,12.74-9.72s-3.88-9.65-12.74-9.65h-6.25v19.37h6.25Z"/>
    <path class="cls-2" d="M403.93,72.19c0-13.26,9.49-22.38,23.18-22.38,14.95,0,23.74,9.95,22.31,25.02h-33.47c.24,7.01,4.67,11.08,11.87,11.08,5.14,0,8.55-1.81,10.21-5.35l11,1.28c-3.24,8.36-10.6,12.73-21.52,12.73-14.24,0-23.58-8.89-23.58-22.38ZM438.43,67.29c-.47-5.73-4.59-9.42-11-9.42s-10.52,3.32-11.24,9.42h22.23Z"/>
    <path class="cls-2" d="M458.28,76.56v-17.26h-6.41v-8.67h6.41v-7.76l12.11-2.41v10.17h12.34v8.67h-12.34v16.2c0,7.31,2.22,9.87,8.15,9.87.95,0,1.98-.15,3.64-.38l1.58,8.67c-1.82.45-4.91.75-7.28.75-12.34,0-18.2-4.75-18.2-17.86Z"/>
    <path class="cls-2" d="M492.27,39.19h16.38c23.18,0,32.2,9.34,32.2,27.28s-9.02,27.28-32.2,27.28h-16.38v-54.56ZM509.13,83.12c14.4,0,19.07-5.35,19.07-16.73s-4.67-16.73-19.15-16.73h-4.27v33.46h4.35Z"/>
    <path class="cls-2" d="M544.42,72.19c0-14.47,8.78-22.38,20.02-22.38,6.41,0,12.19,3.01,14.48,8.14v-7.31h12.03v43.03h-12.03v-7.01c-2.22,4.97-8.07,8.06-14.4,8.06-11.24,0-20.1-8.06-20.1-22.53ZM579.31,72.19c0-8.06-4.75-12.89-11.47-12.89s-11.39,4.75-11.39,12.89,4.75,12.96,11.47,12.96,11.39-4.82,11.39-12.96Z"/>
    <path class="cls-2" d="M602.33,76.56v-17.26h-6.41v-8.67h6.41v-7.76l12.11-2.41v10.17h12.34v8.67h-12.34v16.2c0,7.31,2.22,9.87,8.15,9.87.95,0,1.98-.15,3.64-.38l1.58,8.67c-1.82.45-4.91.75-7.28.75-12.34,0-18.2-4.75-18.2-17.86Z"/>
    <path class="cls-2" d="M627.73,72.19c0-14.47,8.78-22.38,20.02-22.38,6.41,0,12.19,3.01,14.48,8.14v-7.31h12.03v43.03h-12.03v-7.01c-2.22,4.97-8.07,8.06-14.4,8.06-11.24,0-20.1-8.06-20.1-22.53ZM662.62,72.19c0-8.06-4.75-12.89-11.47-12.89s-11.39,4.75-11.39,12.89,4.75,12.96,11.47,12.96,11.39-4.82,11.39-12.96Z"/>
  </g>
  <g id="Frame_Background" data-name="Frame Background">
    <path class="cls-1" d="M19.93,12.84H6.34c-3.5,0-6.34,2.84-6.34,6.34v100.87c0,3.5,2.84,6.34,6.34,6.34h84.52c3.5,0,6.34-2.84,6.34-6.34V40.41c0-.62-.12-1.22-.34-1.79,0-.03,0-.06-.02-.09,0-.01-.01-.03-.02-.04,0,0,0-.01,0-.02-.1-.23-.24-.5-.41-.78-.03-.05-.07-.11-.11-.16-.13-.19-.28-.39-.46-.58l-.04-.04s-.03-.04-.05-.06l-6.06-6.11-16.47-16.63c-.13-.13-.26-.25-.39-.36l-.07-.07s-.03-.03-.05-.04c0,0-.01-.01-.02-.02-.27-.26-.59-.46-.94-.59-.03-.01-.06-.02-.09-.03-.29-.1-.6-.16-.91-.16H19.93ZM77.97,38.15c-3.12,0-5.53-1.94-5.59-4.45V15.73s16.21,16.34,16.21,16.34l5.99,6.05s.02.03.03.04h-16.64Z"/>
  </g>
  <g id="Frame_with_KO" data-name="Frame with KO">
    <g>
      <path class="cls-1" d="M77.44,19.74l-5.47,5.47c-.27.27-.05-.39-.32-.66l-.69-.69c-.27-.27-.27-.71,0-.98l4.81-4.81c.27-.27.71-.27.98,0l.69.69c.27.27.27.71,0,.98Z"/>
      <path class="cls-1" d="M80.99,23.54l-9.1,9.1c-.34.34-.09-.46-.43-.8l-.43-.43c-.34-.34-.34-.9,0-1.24l8.3-8.3c.34-.34.9-.34,1.24,0l.43.43c.34.34.34.9,0,1.24Z"/>
      <rect class="cls-1" x="70.3" y="30.44" width="16.58" height="2.36" rx=".97" ry=".97" transform="translate(.65 64.83) rotate(-45)"/>
      <path class="cls-1" d="M76.29,33.25h12.96c.52,0,.94.42.94.94v.48c0,.52-.42.94-.94.94h-12.23c-.52,0-.94-.42-.94-.94v-1.21c0-.12.1-.21.21-.21Z" transform="translate(0 68.87) rotate(-45)"/>
      <path class="cls-1" d="M92.13,34.45l-4.53,4.53c-.28.28-1.32.87-1.6.6l-.67-.67c-.28-.28-.84-.17-.56-.44l5.68-5.68c.28-.28.73-.28,1,0l.67.67c.28.28.28.73,0,1Z"/>
    </g>
    <polygon class="cls-2" points="71.78 14.16 71.78 34.33 72.81 36.73 74.96 38.36 77.97 39.25 95.98 39.25 94.95 37.16 71.78 14.16"/>
    <g>
      <path class="cls-2" d="M33.41,12.84c.39.59.81,1.16,1.26,1.7h12.87c-.81-.74-1.75-1.33-2.81-1.7h-11.32Z"/>
      <path class="cls-2" d="M96.86,38.62s0-.06-.02-.09c0-.01-.01-.03-.02-.04,0,0,0-.01,0-.02-.1-.23-.24-.5-.41-.78-.03-.05-.07-.11-.11-.16-.13-.19-.28-.39-.46-.58l-.04-.04s-.03-.04-.05-.06l-6.06-6.11-16.47-16.63c-.13-.13-.26-.25-.39-.36l-.07-.07s-.03-.03-.05-.04c0,0-.01-.01-.02-.02-.27-.26-.59-.46-.94-.59-.03-.01-.06-.02-.09-.03-.29-.1-.6-.16-.91-.16h-9.13c-1.06.37-2,.96-2.81,1.7h11.89v19.16c.08,3.5,3.22,6.15,7.28,6.16h17.48c.03.18.05.37.05.56v79.64c0,2.56-2.08,4.64-4.64,4.64H6.34c-2.56,0-4.64-2.08-4.64-4.64V19.18c0-2.56,2.08-4.64,4.64-4.64h12.33c.45-.54.87-1.11,1.26-1.7H6.34c-3.5,0-6.34,2.84-6.34,6.34v100.87c0,3.5,2.84,6.34,6.34,6.34h84.52c3.5,0,6.34-2.84,6.34-6.34V40.41c0-.62-.12-1.22-.34-1.79ZM77.97,38.15c-3.12,0-5.53-1.94-5.59-4.45V15.73s16.21,16.34,16.21,16.34l5.99,6.05s.02.03.03.04h-16.64Z"/>
    </g>
  </g>
  <g id="Pets">
    <path class="cls-3" d="M44.11,102.56c-9.9,0-18.63-2.52-22.09-6.31-.43.69-.64,1.39-.64,2.09,0,4.87,10.41,8.99,22.73,8.99,1.79,0,3.56-.08,5.29-.25-.46-.84-1.13-2.46-1.07-4.69-.95.06-2.99.16-4.22.16Z"/>
    <g class="cls-5">
      <g>
        <path class="cls-2" d="M20.17,66.76c-1.81-2.18-.22-8.43.28-9.13,1.39-3.32,5.6-6.45,10.03-7.75.21-.06.19-.37-.02-.4-.31-.05-.6-.1-.9-.16-2.08-.43-4.19.73-6.08,1.67-5.99,2.98-8.87,4.04-11.03,4.28-2.16.24-3.32.74-3.95,2.64-.53,1.6-.61,3.24-.52,4.88.18,3.26,1.91,7.72.82,10.82-.91,2.6,1.25,3.56,6.71-2.06.01-.01,4.91-4.49,4.66-4.79Z"/>
        <path class="cls-2" d="M69.38,57.39c-.23-.09-.46-.18-.69-.26-3.1-1.07-6.17-2.21-9.04-3.83-3.32-1.88-6.94-2.81-10.66-3.42-2.23-.37-4.48-.17-6.72-.09-1.38.05-4.53-.24-7.7.53-11.32,2.73-12.66,9.04-12.83,9.73-.82,3.29-.5,6.12.67,7.1.3.25-6.24,5.83-5.34,5.67,2.5-.46,6.73-.39,7.54,2.33.03.11-.19.21-.23.09-.55-1.74-3.98-2.17-6.4-1.92-1.1.11-2.01.6-2.85,1.26-1.1.86-1.58,3.36-.27,4.34.29.22.6.54.99.38.4-.17.31-.63.34-.98.03-.32-.1-.65-.08-1.04,0-.13.18-.17.25-.06.68,1.11.73,2.24.56,3.4-.05.37-.34.54-.78.37-.48-.19-.93-.44-1.4-.77-.1-.07-.23.02-.2.14.48,2.49.02,4.92.16,7.35,0,.04.02.07.05.09.06.21.21.42.48.65,1.59,1.28,5.05,2.4,7.61,2.87,2.35.29,5.04.44,7.71-.08.6-.03,5.05-1.05,7.42-1.68-.88.69-3.23,1.82-7.15,2.74-2.23.52-4.48.71-6.74.6-.71-.04-.87.11-.67.78.11.4.26.79.37,1.19.19.69.34,1.39.47,2.09,3.97,2.83,11.6,4.69,19.89,4.69,1.51,0,4.39-.18,4.65-.19,0-.13-.02-.27-.04-.4-.21-1.23.05-2.41.5-3.54.17-.42.17-.76-.03-1.16-1.06-2.16-1.67-4.51-1.62-6.91.04-1.91-.04-3.82.15-5.73.2-1.98.92-3.8,1.46-5.63.02-.07.1-.11.17-.09,1.85.65,3.5,1.54,5.14,2.53,5.33,3.24,7.58,8.3,7.64,7.75.37-3.6-.08-7.51-.19-9.17-.03-.45-.35-.61-.69-.78-4.74-2.3-7.73-6.13-9.51-10.98-.79-2.14-1.05-4.42-1.65-6.61-.96-3.52-2.72-6.47-6.02-8.3-.14-.08-.33-.12-.31-.35.23-.18.47-.07.7-.02,2.24.48,4.04,1.67,5.4,3.49,1.5,2.01,2.37,4.31,2.9,6.73,1.23,5.57,4.05,10.1,8.68,13.47,2.01,1.46,4.17,2.4,6.72,2.27.67-.04.89-.31.74-.92-.69-2.85-.12-5.51,1.15-8.09.96-1.94,1.72-3.96,2.19-6.09.59-2.71-.3-4.51-2.86-5.53ZM37.3,67.13c-1.55-2.62-4.27-2.45-3.57-1.64.07.2-.01.59-.1.89-.15.52-.71,1.15-1.27,1.46.5.2.93.2,1.48,0,.14-.05.29.03.34.17.05.14-.03.29-.17.34-.34.12-.65.17-.94.17-.56,0-1.04-.2-1.56-.52-.02-.02-.03-.04-.05-.06,0,0-.02,0-.03,0-.81-.46-.97-1.07-.66-2.12.07-.25.2-.47.37-.65.52-.86,1.95-1.47,2.91-1.29,3.44.65,3.57,3.8,3.25,3.25Z"/>
        <path class="cls-2" d="M52.59,111.88c-2.11,1.14-3.82,2.79-5.68,4.35-.02-.18-.06-.26-.03-.32.05-.14.13-.26.2-.39.99-1.84,2.5-3.15,4.28-4.18.87-.51.88-.49.37-1.37-.04-.06-.08-.12-.12-.19-.58-.96-.79-1.04-1.85-.64-1.29.48-2.61.89-3.85,1.5-.2.1-.48.22-.61.01-.15-.24.14-.38.3-.51,1.22-1.02,2.64-1.67,4.13-2.17-1.83.18-3.72.28-5.62.28-7.94,0-14.84-1.56-19.11-4,.12,1.51.35,3.05.03,4.51-.7,3.18-1.48,6.34-1.81,9.59-.3,2.95-.39,5.92.24,8.82.1.46.21.9.34,1.35l.11,1.48,27.21-.09-.33-1.39c-.26-1.75-.42-3.51-.45-5.3-.03-1.98.08-3.93.75-5.8.48-1.36,1.05-2.69,1.57-4.04.18-.47.39-.94.11-1.44-.03-.06-.12-.08-.18-.05Z"/>
      </g>
      <g>
        <path class="cls-2" d="M56.99,102.06c4.22,1.93,6.41.91,6.43-.05.02-1.09-.28-2.11-.88-3-.83-1.23-2.02-1.98-3.54-1.89-1.21.08-2.1.89-2.96,1.68-.33.3-.31.36-1.1.69-.29.12-.12.86-.05.95.69.79,1.18,1.2,2.09,1.61ZM60.51,98.84c.4,0,.72.63.72,1.42s-.32,1.42-.72,1.42-.72-.63-.72-1.42.32-1.42.72-1.42Z"/>
        <path class="cls-2" d="M61.31,107.68c-1.24-.76-3.77-.89-5.08-1.03-1.01-.11-3.01.03-2.93,1.69.02.5.19,1.02.59,1.39.15.14.31.08.48,0,2.22-.86,4.52-1.44,6.94-2.06Z"/>
        <path class="cls-2" d="M79.42,115.87c-2.01-2.78-.79-3.59-.13-4.29.18-.19.35-.39.52-.58-2.53-.86-4.73-1.12-6.28-1.43-.03,0-.2-.28.22-.33,1.29-.15,3.84.09,6.65,1.04.53-.68.98-1.37,1.35-2.05-4.09-.73-7.91-.68-8.09-.67-.29.02-.49-.21.15-.36,1.43-.35,4.83-.56,8.37.18,1.94-4.26,1.06-8.2-.35-9.89-.21-.25-.21-.51-.12-.83.85-2.81,1.35-5.68,1.45-8.61.09-2.58-.25-5.1-1.07-7.55-.29-.85-.35-.86-1.1-.34-1.7,1.18-3.38,2.41-4.81,3.91-1.36,1.42-2.67,2.9-3.65,4.64-.26.46-.63.9-.98.72-3.57-1.84-7.04-1.62-10.43.47-.1.06-.3.2-.5.35-1-1.46-1.89-2.66-2.03-2.84-2.25-2.98-4.09-4.46-7.26-6.36-.53-.32-.78-.27-.96.39-.75,2.86-.6,5.74-.38,8.64.16,2.07.99,3.92,1.62,5.83,9.75-5.67,12.25.84,12.29.52.59-5.47,3.6,8.8,3.7,8.99-.87-.24-1.75-.3-2.59.1-.93.44-.91.51-.14,1.12.63.5,1.36.98,1.21,1.96-.17,1.11-.76,1.07-1.86,1.42-.23.07-.76.06-1.29.05-.94-.33-1.06-1.04-1.3-1.38-.48-.13-.82-.07-1.14,0-1.91.44-4.48,1.14-6.25,1.96-.55.26,3.32,3.96,4.84,4.28.01,0,.02,0,.03,0,1.55.5,3.64.68,3.81.66q.04.09.08.18c-.33.31-3.73,10.1-2.73,14.42l33.68-.45,1.05-1.36s-7.36-1.13-15.58-12.54Z"/>
      </g>
    </g>
  </g>
  <g id="Sparkle">
    <path class="cls-4" d="M62.44,9.24h0c-4.65-.79-8.32-4.46-9.11-9.1h0c-.01-.08-.08-.14-.16-.14s-.15.06-.16.14h0c-.79,4.65-4.46,8.32-9.11,9.1h0c-.08.01-.14.08-.14.16s.06.15.14.16h0c4.65.79,8.32,4.46,9.11,9.1h0c.01.08.08.14.16.14s.15-.06.16-.14h0c.79-4.65,4.46-8.32,9.11-9.1h0c.08-.01.14-.08.14-.16s-.06-.15-.14-.16Z"/>
    <path class="cls-4" d="M47.45,25.22h0c-10.42-1.77-18.65-9.99-20.42-20.41h0c-.02-.17-.17-.31-.35-.31s-.33.13-.35.31h0c-1.77,10.42-10,18.64-20.42,20.4h0c-.17.03-.31.18-.31.36s.13.33.31.35h0c10.42,1.77,18.65,9.99,20.42,20.41h0c.02.17.17.31.35.31s.33-.13.35-.31h0c1.77-10.42,10-18.64,20.42-20.41h0c.17-.03.31-.18.31-.36s-.13-.33-.31-.35Z"/>
  </g>
</svg>